<svg width="40" height="30" viewBox="0 0 40 30" fill="none" xmlns="http://www.w3.org/2000/svg">
<path d="M18.356 29.138C18.5395 29.4045 18.785 29.6224 19.0714 29.7729C19.3578 29.9234 19.6765 30.0021 20 30.0021C20.3235 30.0021 20.6422 29.9234 20.9286 29.7729C21.215 29.6224 21.4605 29.4045 21.644 29.138L39.644 3.138C39.8523 2.83811 39.9745 2.48686 39.9973 2.12241C40.02 1.75796 39.9424 1.39425 39.773 1.07079C39.6035 0.747329 39.3486 0.476497 39.0361 0.287716C38.7235 0.0989361 38.3652 -0.000572688 38 2.47931e-06H2C1.63568 0.0015073 1.27867 0.102296 0.967357 0.291528C0.656042 0.480761 0.402201 0.751278 0.233133 1.07399C0.0640648 1.3967 -0.0138339 1.75939 0.00781406 2.12306C0.029462 2.48674 0.149837 2.83763 0.355995 3.138L18.356 29.138Z" fill="white"/>
</svg>
