<svg width="73" height="73" viewBox="0 0 73 73" fill="none" xmlns="http://www.w3.org/2000/svg">
<path d="M36.5 73C26.8196 73 17.5357 69.1545 10.6906 62.3094C3.84552 55.4643 0 46.1804 0 36.5C0 26.8196 3.84552 17.5357 10.6906 10.6906C17.5357 3.84552 26.8196 0 36.5 0C46.1804 0 55.4643 3.84552 62.3094 10.6906C69.1545 17.5357 73 26.8196 73 36.5C73 46.1804 69.1545 55.4643 62.3094 62.3094C55.4643 69.1545 46.1804 73 36.5 73ZM43.8 25.55C43.8 26.572 43.0335 28.47 42.267 29.2L36.5 34.967C34.4195 37.084 32.85 40.807 32.85 43.8V47.45H40.15V43.8C40.15 42.7415 40.9165 40.88 41.683 40.15L47.45 34.383C49.5305 32.266 51.1 28.543 51.1 25.55C51.1 21.6778 49.5618 17.9643 46.8238 15.2262C44.0857 12.4882 40.3722 10.95 36.5 10.95C32.6278 10.95 28.9143 12.4882 26.1762 15.2262C23.4382 17.9643 21.9 21.6778 21.9 25.55H29.2C29.2 23.6139 29.9691 21.7571 31.3381 20.3881C32.7071 19.0191 34.5639 18.25 36.5 18.25C38.4361 18.25 40.2929 19.0191 41.6619 20.3881C43.0309 21.7571 43.8 23.6139 43.8 25.55ZM32.85 54.75V62.05H40.15V54.75H32.85Z" fill="url(#paint0_linear_25_1071)"/>
<defs>
<linearGradient id="paint0_linear_25_1071" x1="36.5" y1="0" x2="36.5" y2="73" gradientUnits="userSpaceOnUse">
<stop stop-color="#FF2734"/>
<stop offset="1" stop-color="#4C67FA"/>
</linearGradient>
</defs>
</svg>
