<svg width="27" height="27" viewBox="0 0 27 27" fill="none" xmlns="http://www.w3.org/2000/svg">
<path d="M13.5 0.583252C6.39587 0.583252 0.583374 6.39575 0.583374 13.4999C0.583374 20.6041 6.39587 26.4166 13.5 26.4166C20.6042 26.4166 26.4167 20.6041 26.4167 13.4999C26.4167 6.39575 20.6042 0.583252 13.5 0.583252ZM13.5 23.8333C7.80379 23.8333 3.16671 19.1962 3.16671 13.4999C3.16671 7.80367 7.80379 3.16659 13.5 3.16659C19.1963 3.16659 23.8334 7.80367 23.8334 13.4999C23.8334 19.1962 19.1963 23.8333 13.5 23.8333ZM19.4288 7.79075L10.9167 16.3028L7.57129 12.9703L5.75004 14.7916L10.9167 19.9583L21.25 9.62492L19.4288 7.79075Z" fill="url(#paint0_linear_25_782)"/>
<defs>
<linearGradient id="paint0_linear_25_782" x1="0.583374" y1="13.4999" x2="26.4167" y2="13.4999" gradientUnits="userSpaceOnUse">
<stop stop-color="#931CFD"/>
<stop offset="1" stop-color="#4D65FA"/>
</linearGradient>
</defs>
</svg>
