<?xml version="1.0" encoding="utf-8"?>
<!-- Generator: Adobe Illustrator 24.1.0, SVG Export Plug-In . SVG Version: 6.00 Build 0)  -->
<svg version="1.1" id="Layer_1" xmlns="http://www.w3.org/2000/svg" xmlns:xlink="http://www.w3.org/1999/xlink" x="0px" y="0px"
	 viewBox="0 0 31 33" style="enable-background:new 0 0 31 33;" xml:space="preserve">
<style type="text/css">
	.st0{fill:#2D374B;}
	.st1{fill:#28A0F0;}
	.st2{fill:#FFFFFF;}
	.st3{fill:#96BEDC;}
</style>
<g id="Logos_and_symbols">
	<g id="Symbol_-_Original-14">
		<path class="st0" d="M18.4,14.8l2.4-4.1l6.4,10v1.9l0-13.3c0-0.3-0.2-0.6-0.5-0.8L15.1,2c-0.3-0.1-0.6-0.1-0.9,0
			c0,0-0.1,0-0.1,0.1l0,0L2.8,8.6l0,0c-0.1,0-0.1,0.1-0.2,0.1C2.4,8.8,2.3,9.1,2.2,9.3c0,0,0,0.1,0,0.1l0,10.8l6-9.3
			c0.8-1.2,2.4-1.6,3.9-1.6l1.8,0L3.4,26.3L4.6,27L15.3,9.4l4.7,0L9.4,27.5l4.4,2.6l0.5,0.3c0.2,0.1,0.5,0.1,0.7,0l11.8-6.8
			l-2.2,1.3L18.4,14.8z M19.3,27.9l-4.5-7l2.7-4.6l5.9,9.3L19.3,27.9z"/>
		<polygon class="st1" points="14.8,20.9 19.3,27.9 23.4,25.5 17.5,16.2 		"/>
		<path class="st1" d="M27.2,22.7v-1.9l-6.4-10l-2.4,4.1l6.2,10.1l2.2-1.3c0.2-0.2,0.4-0.4,0.4-0.7L27.2,22.7z"/>
		<path class="st2" d="M0.2,24.5l3.2,1.8L14,9.4l-1.8,0c-1.5,0-3.2,0.4-3.9,1.6l-6,9.3l-2,3.1L0.2,24.5L0.2,24.5z"/>
		<polygon class="st2" points="20.1,9.4 15.3,9.4 4.6,27 8.4,29.2 9.4,27.5 		"/>
		<path class="st3" d="M29.2,9.4c0-1-0.6-1.9-1.4-2.4L16,0.2c-0.9-0.4-1.8-0.4-2.7,0c-0.1,0-11.4,6.6-11.4,6.6
			C1.8,6.9,1.6,7,1.5,7.1C0.7,7.6,0.3,8.4,0.2,9.3v14l2-3.1l0-10.8c0,0,0-0.1,0-0.1c0-0.3,0.2-0.5,0.4-0.6C2.7,8.7,14.2,2,14.3,2
			c0.3-0.1,0.6-0.1,0.9,0l11.6,6.7c0.3,0.2,0.4,0.5,0.5,0.8v13.4c0,0.3-0.1,0.5-0.3,0.7l-2.2,1.3l-1.2,0.7l-4.1,2.4l-4.2,2.4
			c-0.2,0.1-0.5,0.1-0.7,0l-5-2.9l-1,1.7l4.5,2.6l0.4,0.2c0.2,0.1,0.3,0.2,0.3,0.2c0.4,0.2,0.8,0.2,1.2,0.2c0.4,0,0.7-0.1,1.1-0.2
			l12.2-7.1c0.7-0.5,1.1-1.4,1.2-2.3L29.2,9.4z"/>
	</g>
</g>
</svg>
