<svg width="63" height="24" viewBox="0 0 63 24" fill="none" xmlns="http://www.w3.org/2000/svg">
<rect width="63" height="24" rx="12" fill="#4767FB" fill-opacity="0.06"/>
<rect x="0.5" y="0.5" width="62" height="23" rx="11.5" stroke="#4767FB" stroke-opacity="0.2"/>
<circle cx="51" cy="12" r="10" fill="url(#paint0_linear_258_4095)"/>
<path d="M51.0001 11.9035C50.371 11.2741 49.9426 10.4724 49.7689 9.59965C49.5953 8.72688 49.6843 7.82222 50.0246 7C49.0543 7.19103 48.1629 7.66716 47.4646 8.3675C45.5121 10.32 45.5121 13.486 47.4646 15.4385C49.4176 17.3915 52.5831 17.391 54.5361 15.4385C55.2363 14.7403 55.7124 13.8491 55.9036 12.879C55.0814 13.2193 54.1767 13.3082 53.304 13.1346C52.4312 12.961 51.6295 12.5326 51.0001 11.9035Z" fill="white"/>
<g opacity="0.5">
<path d="M11.4975 12C11.4975 13.3805 12.6205 14.5035 14.001 14.5035C15.3815 14.5035 16.5045 13.3805 16.5045 12C16.5045 10.6195 15.3815 9.4965 14.001 9.4965C12.6205 9.4965 11.4975 10.6195 11.4975 12ZM13.5 15.5H14.5V17H13.5V15.5ZM13.5 7H14.5V8.5H13.5V7ZM9 11.5H10.5V12.5H9V11.5ZM17.5 11.5H19V12.5H17.5V11.5ZM10.8185 15.889L10.1115 15.182L11.172 14.1215L11.879 14.8285L10.8185 15.889ZM16.121 9.172L17.182 8.111L17.889 8.818L16.828 9.879L16.121 9.172ZM11.172 9.8795L10.1115 8.8185L10.819 8.1115L11.879 9.1725L11.172 9.8795ZM17.889 15.182L17.182 15.889L16.121 14.828L16.828 14.121L17.889 15.182Z" fill="white"/>
</g>
<defs>
<linearGradient id="paint0_linear_258_4095" x1="41" y1="12" x2="61" y2="12" gradientUnits="userSpaceOnUse">
<stop stop-color="#FF3E3D"/>
<stop offset="1" stop-color="#466DFD"/>
</linearGradient>
</defs>
</svg>
