<svg width="8" height="10" viewBox="0 0 8 10" fill="none" xmlns="http://www.w3.org/2000/svg">
<path d="M7.24542 3.36262C7.32358 3.46916 7.35868 3.60126 7.34373 3.73255C7.32877 3.86384 7.26486 3.98466 7.16475 4.0709C7.06463 4.15715 6.93568 4.20246 6.80362 4.19781C6.67157 4.19316 6.54612 4.13889 6.45232 4.04582L3.67332 1.26682L0.894321 4.04582L0.835521 4.09692C0.728971 4.17507 0.596876 4.21018 0.465587 4.19522C0.334297 4.18027 0.213475 4.11636 0.127234 4.01624C0.0409925 3.91613 -0.00432453 3.78717 0.000325468 3.65512C0.00497547 3.52306 0.0592525 3.39762 0.152322 3.30382L3.30232 0.153813L3.36112 0.102713C3.46225 0.028013 3.58683 -0.00791404 3.71221 0.00146296C3.83758 0.010841 3.95543 0.0649 4.04432 0.153813L7.19432 3.30382L7.24542 3.36262Z" fill="#81A9D8"/>
<path d="M0.102235 5.83611C0.0240748 5.72957 -0.0110252 5.59747 0.00392485 5.46618C0.0188848 5.33489 0.0827947 5.21407 0.182905 5.12783C0.283025 5.04158 0.411974 4.99627 0.544034 5.00092C0.676084 5.00557 0.801535 5.05984 0.895335 5.15291L3.67433 7.93191L6.45333 5.15291L6.51213 5.10181C6.61868 5.02366 6.75078 4.98855 6.88207 5.00351C7.01336 5.01846 7.13418 5.08237 7.22042 5.18249C7.30666 5.2826 7.35198 5.41156 7.34733 5.54361C7.34268 5.67567 7.2884 5.80111 7.19533 5.89491L4.04533 9.04492L3.98653 9.09602C3.8854 9.17072 3.76082 9.20664 3.63544 9.19727C3.51007 9.18789 3.39222 9.13383 3.30333 9.04492L0.153335 5.89491L0.102235 5.83611Z" fill="#81A9D8"/>
</svg>
