<svg width="99" height="99" viewBox="0 0 99 99" fill="none" xmlns="http://www.w3.org/2000/svg">
<g filter="url(#filter0_d_434_2395)">
<circle cx="49.5" cy="39.5" r="29.5" fill="url(#paint0_radial_434_2395)"/>
<g clip-path="url(#clip0_434_2395)">
<path d="M47.9676 40.0789C49.0274 39.5386 50.7457 39.5386 51.8054 40.0789L65.8774 47.2528C66.9372 47.7931 66.9372 48.6692 65.8774 49.2095L51.8054 56.3833C50.7457 56.9237 49.0274 56.9237 47.9676 56.3833L33.8957 49.2095C32.8359 48.6692 32.8359 47.7931 33.8957 47.2528L47.9676 40.0789Z" fill="#5EEAD4"/>
<g filter="url(#filter1_f_434_2395)">
<path d="M47.9676 39.4267C49.0274 38.8864 50.7457 38.8864 51.8054 39.4267L65.8774 46.6008C66.9372 47.1409 66.9372 48.017 65.8774 48.5573L51.8054 55.7313C50.7457 56.2714 49.0274 56.2714 47.9676 55.7313L33.8957 48.5573C32.8359 48.017 32.8359 47.1409 33.8957 46.6008L47.9676 39.4267Z" fill="#5EEAD4"/>
</g>
<path d="M47.9675 37.144C49.0273 36.6038 50.7455 36.6038 51.8053 37.144L66.1971 44.4811C68.3165 45.5618 68.3165 47.3137 66.1971 48.3941L51.8053 55.7313C50.7455 56.2714 49.0273 56.2714 47.9675 55.7313L33.5758 48.3941C31.4562 47.3137 31.4562 45.5618 33.5758 44.4811L47.9675 37.144Z" fill="url(#paint1_linear_434_2395)"/>
<path d="M47.9676 37.4701C49.0274 36.9298 50.7457 36.9298 51.8054 37.4701L65.2377 44.3181C66.2977 44.8582 66.2977 45.7343 65.2377 46.2746L51.8054 53.1226C50.7457 53.6629 49.0274 53.6629 47.9676 53.1226L34.5353 46.2746C33.4755 45.7343 33.4755 44.8582 34.5353 44.3181L47.9676 37.4701Z" fill="url(#paint2_linear_434_2395)"/>
<path d="M47.9676 41.2272C49.0274 40.687 50.7457 40.687 51.8054 41.2272L58.0844 44.4284C59.1441 44.9685 59.1441 45.8446 58.0844 46.3849L51.8054 49.586C50.7457 50.1263 49.0274 50.1263 47.9676 49.586L41.6886 46.3849C40.6289 45.8446 40.6289 44.9685 41.6886 44.4284L47.9676 41.2272Z" fill="url(#paint3_linear_434_2395)"/>
<path d="M49.6286 25.4048L54.7456 28.0135L49.6286 30.6223L44.5115 28.0135L49.6286 25.4048Z" fill="url(#paint4_linear_434_2395)"/>
<path d="M44.5103 28.0135L49.6273 30.6222V35.8397L44.5103 33.231V28.0135Z" fill="url(#paint5_linear_434_2395)"/>
<path d="M49.6265 30.6223L54.7435 28.0135V33.231L49.6265 35.8397V30.6223Z" fill="url(#paint6_linear_434_2395)"/>
<path d="M42.2421 29.9701L47.3591 32.5788L42.2421 35.1875L37.125 32.5788L42.2421 29.9701Z" fill="url(#paint7_linear_434_2395)"/>
<path d="M37.1238 32.5788L42.2409 35.1875V40.405L37.1238 37.7962V32.5788Z" fill="url(#paint8_linear_434_2395)"/>
<path d="M42.24 35.1875L47.3571 32.5788V37.7963L42.24 40.405V35.1875Z" fill="url(#paint9_linear_434_2395)"/>
<path d="M57.014 29.9701L62.1311 32.5788L57.014 35.1875L51.897 32.5788L57.014 29.9701Z" fill="url(#paint10_linear_434_2395)"/>
<path d="M51.8958 32.5788L57.0127 35.1875V40.405L51.8958 37.7962V32.5788Z" fill="#12D9E6"/>
<path d="M57.012 35.1875L62.129 32.5788V37.7963L57.012 40.405V35.1875Z" fill="url(#paint11_linear_434_2395)"/>
<path opacity="0.4" d="M51.8958 20.1873H62.1398V32.5788H51.8958V20.1873Z" fill="url(#paint12_linear_434_2395)"/>
<path d="M56.3276 31.2744C56.3276 31.6346 55.997 31.9266 55.5892 31.9266C55.1813 31.9266 54.8506 31.6346 54.8506 31.2744C54.8506 30.9142 55.1813 30.6223 55.5892 30.6223C55.997 30.6223 56.3276 30.9142 56.3276 31.2744Z" fill="#F0FDFA"/>
<path d="M60.682 28.632C60.682 28.9736 60.3686 29.2505 59.9817 29.2505C59.5949 29.2505 59.2812 28.9736 59.2812 28.632C59.2812 28.2904 59.5949 28.0135 59.9817 28.0135C60.3686 28.0135 60.682 28.2904 60.682 28.632Z" fill="#F0FDFA"/>
<path d="M58.5047 23.7575C58.5047 23.9283 58.348 24.0667 58.1544 24.0667C57.9611 24.0667 57.8044 23.9283 57.8044 23.7575C57.8044 23.5867 57.9611 23.4482 58.1544 23.4482C58.348 23.4482 58.5047 23.5867 58.5047 23.7575Z" fill="#CCFBF1"/>
<path d="M55.5511 26.3662C55.5511 26.537 55.3942 26.6754 55.2008 26.6754C55.0074 26.6754 54.8506 26.537 54.8506 26.3662C54.8506 26.1954 55.0074 26.057 55.2008 26.057C55.3942 26.057 55.5511 26.1954 55.5511 26.3662Z" fill="#2DD4BF"/>
<path d="M49.6286 35.1875L54.7456 37.7962L49.6286 40.405L44.5115 37.7962L49.6286 35.1875Z" fill="url(#paint13_linear_434_2395)"/>
<path d="M44.5103 37.7962L49.6273 40.4049V45.6224L44.5103 43.0137V37.7962Z" fill="url(#paint14_linear_434_2395)"/>
<path d="M49.6265 40.4049L54.7435 37.7962V43.0137L49.6265 45.6224V40.4049Z" fill="url(#paint15_linear_434_2395)"/>
</g>
</g>
<defs>
<filter id="filter0_d_434_2395" x="0" y="0" width="99" height="99" filterUnits="userSpaceOnUse" color-interpolation-filters="sRGB">
<feFlood flood-opacity="0" result="BackgroundImageFix"/>
<feColorMatrix in="SourceAlpha" type="matrix" values="0 0 0 0 0 0 0 0 0 0 0 0 0 0 0 0 0 0 127 0" result="hardAlpha"/>
<feOffset dy="10"/>
<feGaussianBlur stdDeviation="10"/>
<feComposite in2="hardAlpha" operator="out"/>
<feColorMatrix type="matrix" values="0 0 0 0 0.278431 0 0 0 0 0.403922 0 0 0 0 0.984314 0 0 0 0.21 0"/>
<feBlend mode="normal" in2="BackgroundImageFix" result="effect1_dropShadow_434_2395"/>
<feBlend mode="normal" in="SourceGraphic" in2="effect1_dropShadow_434_2395" result="shape"/>
</filter>
<filter id="filter1_f_434_2395" x="28.1008" y="34.0215" width="43.5715" height="27.1149" filterUnits="userSpaceOnUse" color-interpolation-filters="sRGB">
<feFlood flood-opacity="0" result="BackgroundImageFix"/>
<feBlend mode="normal" in="SourceGraphic" in2="BackgroundImageFix" result="shape"/>
<feGaussianBlur stdDeviation="2.5" result="effect1_foregroundBlur_434_2395"/>
</filter>
<radialGradient id="paint0_radial_434_2395" cx="0" cy="0" r="1" gradientUnits="userSpaceOnUse" gradientTransform="translate(49.5 39.5) rotate(90) scale(29.5)">
<stop stop-color="white" stop-opacity="0.46"/>
<stop offset="1" stop-color="#7C93FF" stop-opacity="0.26"/>
</radialGradient>
<linearGradient id="paint1_linear_434_2395" x1="69.6205" y1="45.9485" x2="41.6811" y2="64.2163" gradientUnits="userSpaceOnUse">
<stop stop-color="#626AE9"/>
<stop offset="0.57323" stop-color="#8A95F0"/>
<stop offset="1" stop-color="#A7B5F6"/>
</linearGradient>
<linearGradient id="paint2_linear_434_2395" x1="66.8014" y1="44.877" x2="42.8535" y2="60.5354" gradientUnits="userSpaceOnUse">
<stop stop-color="#4B4DDC"/>
<stop offset="1" stop-color="#626AE9"/>
</linearGradient>
<linearGradient id="paint3_linear_434_2395" x1="59.7953" y1="45.161" x2="45.7666" y2="54.3337" gradientUnits="userSpaceOnUse">
<stop stop-color="#3F3FC2"/>
<stop offset="1" stop-color="#34359D"/>
</linearGradient>
<linearGradient id="paint4_linear_434_2395" x1="54.6404" y1="27.8893" x2="47.5447" y2="32.5287" gradientUnits="userSpaceOnUse">
<stop stop-color="#8596E4"/>
<stop offset="1" stop-color="#D8DAFF"/>
</linearGradient>
<linearGradient id="paint5_linear_434_2395" x1="49.4529" y1="30.4627" x2="45.5806" y2="34.2605" gradientUnits="userSpaceOnUse">
<stop stop-color="#8596E4"/>
<stop offset="1" stop-color="#D8DAFF"/>
</linearGradient>
<linearGradient id="paint6_linear_434_2395" x1="54.5691" y1="28.0319" x2="54.5691" y2="35.7778" gradientUnits="userSpaceOnUse">
<stop stop-color="#8596E4"/>
<stop offset="1" stop-color="#D8DAFF"/>
</linearGradient>
<linearGradient id="paint7_linear_434_2395" x1="47.2539" y1="32.4546" x2="40.1582" y2="37.094" gradientUnits="userSpaceOnUse">
<stop stop-color="#8596E4"/>
<stop offset="1" stop-color="#D8DAFF"/>
</linearGradient>
<linearGradient id="paint8_linear_434_2395" x1="42.0664" y1="35.028" x2="38.1942" y2="38.8257" gradientUnits="userSpaceOnUse">
<stop stop-color="#8596E4"/>
<stop offset="1" stop-color="#D8DAFF"/>
</linearGradient>
<linearGradient id="paint9_linear_434_2395" x1="47.1826" y1="32.5972" x2="47.1826" y2="40.3431" gradientUnits="userSpaceOnUse">
<stop stop-color="#8596E4"/>
<stop offset="1" stop-color="#D8DAFF"/>
</linearGradient>
<linearGradient id="paint10_linear_434_2395" x1="59.5725" y1="31.2744" x2="57.4613" y2="35.4156" gradientUnits="userSpaceOnUse">
<stop stop-color="#1CFFE5"/>
<stop offset="1" stop-color="#60E2FF"/>
</linearGradient>
<linearGradient id="paint11_linear_434_2395" x1="59.566" y1="33.8729" x2="61.8726" y2="37.8315" gradientUnits="userSpaceOnUse">
<stop stop-color="#06D3ED"/>
<stop offset="1" stop-color="#0098D9"/>
</linearGradient>
<linearGradient id="paint12_linear_434_2395" x1="57.0177" y1="20.1873" x2="57.0177" y2="32.5788" gradientUnits="userSpaceOnUse">
<stop stop-color="#5EEAD4" stop-opacity="0"/>
<stop offset="1" stop-color="#5EEAD4"/>
</linearGradient>
<linearGradient id="paint13_linear_434_2395" x1="54.6404" y1="37.672" x2="47.5447" y2="42.3115" gradientUnits="userSpaceOnUse">
<stop stop-color="#8596E4"/>
<stop offset="1" stop-color="#D8DAFF"/>
</linearGradient>
<linearGradient id="paint14_linear_434_2395" x1="49.4529" y1="40.2454" x2="45.5807" y2="44.0433" gradientUnits="userSpaceOnUse">
<stop stop-color="#8596E4"/>
<stop offset="1" stop-color="#D8DAFF"/>
</linearGradient>
<linearGradient id="paint15_linear_434_2395" x1="54.5691" y1="37.8146" x2="54.5691" y2="45.5606" gradientUnits="userSpaceOnUse">
<stop stop-color="#8596E4"/>
<stop offset="1" stop-color="#D8DAFF"/>
</linearGradient>
<clipPath id="clip0_434_2395">
<rect width="41.3608" height="37.4586" fill="white" transform="translate(29 20)"/>
</clipPath>
</defs>
</svg>
