<svg width="40" height="40" viewBox="0 0 40 40" fill="none" xmlns="http://www.w3.org/2000/svg">
<g clip-path="url(#clip0_434_2423)">
<path d="M18.3435 21.0714C19.3684 20.4797 21.0301 20.4797 22.055 21.0714L35.6641 28.9285C36.6889 29.5203 36.6889 30.4797 35.6641 31.0715L22.055 38.9285C21.0301 39.5203 19.3684 39.5203 18.3435 38.9285L4.7345 31.0715C3.70961 30.4797 3.70958 29.5203 4.7345 28.9285L18.3435 21.0714Z" fill="#5EEAD4"/>
<g filter="url(#filter0_f_434_2423)">
<path d="M18.3435 20.3571C19.3684 19.7654 21.0301 19.7654 22.055 20.3571L35.6641 28.2144C36.6889 28.8059 36.6889 29.7654 35.6641 30.3572L22.055 38.2144C21.0301 38.8059 19.3684 38.8059 18.3435 38.2144L4.7345 30.3572C3.70961 29.7654 3.70958 28.8059 4.7345 28.2144L18.3435 20.3571Z" fill="#5EEAD4"/>
</g>
<path d="M18.3436 17.8571C19.3685 17.2654 21.0302 17.2654 22.0551 17.8571L35.9734 25.8928C38.0231 27.0764 38.0231 28.9951 35.9734 30.1785L22.0551 38.2144C21.0302 38.8059 19.3685 38.8059 18.3436 38.2144L4.4253 30.1785C2.37548 28.9951 2.37548 27.0764 4.4253 25.8928L18.3436 17.8571Z" fill="url(#paint0_linear_434_2423)"/>
<path d="M18.3435 18.2143C19.3685 17.6225 21.0302 17.6225 22.0551 18.2143L35.0454 25.7144C36.0705 26.3059 36.0705 27.2654 35.0454 27.8572L22.0551 35.3572C21.0302 35.949 19.3685 35.949 18.3435 35.3572L5.35316 27.8572C4.32826 27.2654 4.32823 26.3059 5.35316 25.7144L18.3435 18.2143Z" fill="url(#paint1_linear_434_2423)"/>
<path d="M18.3435 22.3291C19.3685 21.7374 21.0302 21.7374 22.0551 22.3291L28.1274 25.8351C29.1523 26.4267 29.1523 27.3861 28.1274 27.9779L22.0551 31.4838C21.0302 32.0756 19.3685 32.0756 18.3435 31.4838L12.2711 27.9779C11.2462 27.3861 11.2462 26.4267 12.2711 25.8351L18.3435 22.3291Z" fill="url(#paint2_linear_434_2423)"/>
<path fill-rule="evenodd" clip-rule="evenodd" d="M25.0706 18.9312C25.1492 18.973 25.2266 19.0159 25.3029 19.0599C25.3791 19.104 25.4534 19.1487 25.5259 19.194C25.6896 19.2966 25.6784 19.4564 25.5008 19.5509C25.3231 19.6454 25.0464 19.6389 24.8827 19.5364C24.8183 19.496 24.7521 19.4562 24.6843 19.4171C24.6164 19.3779 24.5475 19.3397 24.4777 19.3026C24.3001 19.208 24.2888 19.0482 24.4525 18.9457C24.6162 18.8431 24.893 18.8367 25.0706 18.9312ZM23.1498 18.4532C23.0528 18.5809 22.7948 18.6391 22.5735 18.5831C21.5134 18.3148 20.3598 18.2075 19.2244 18.2615C18.9836 18.273 18.7724 18.1696 18.7525 18.0306C18.7327 17.8916 18.9118 17.7696 19.1525 17.7581C20.4303 17.6974 21.7295 17.8181 22.9247 18.1205C23.146 18.1765 23.2467 18.3255 23.1498 18.4532ZM27.0858 21.6374C27.3266 21.6259 27.5379 21.7293 27.5576 21.8683C27.663 22.606 27.4538 23.3561 26.9299 24.0462C26.833 24.1739 26.575 24.2321 26.3538 24.1761C26.1325 24.1201 26.0317 23.9712 26.1289 23.8434C26.5935 23.2314 26.7794 22.5653 26.6858 21.9098C26.6661 21.7708 26.845 21.6488 27.0858 21.6374ZM25.5008 24.9283C25.6784 25.0228 25.6896 25.1826 25.5259 25.2851C25.4534 25.3305 25.3791 25.3752 25.3029 25.4192C25.2266 25.4632 25.1492 25.5062 25.0706 25.548C24.893 25.6426 24.6162 25.636 24.4525 25.5335C24.2888 25.4309 24.3001 25.2711 24.4777 25.1766C24.5475 25.1394 24.6164 25.1012 24.6843 25.0621C24.7521 25.0229 24.8183 24.9831 24.8827 24.9428C25.0464 24.8402 25.3231 24.8337 25.5008 24.9283ZM15.1386 18.9457C15.3024 19.0482 15.2911 19.208 15.1135 19.3026C15.0436 19.3397 14.9747 19.3779 14.9069 19.4171C14.839 19.4562 14.7729 19.496 14.7085 19.5364C14.5447 19.6389 14.268 19.6454 14.0904 19.5509C13.9128 19.4564 13.9015 19.2966 14.0653 19.194C14.1377 19.1487 14.212 19.104 14.2883 19.0599C14.3645 19.0159 14.442 18.973 14.5206 18.9312C14.6982 18.8367 14.9749 18.8431 15.1386 18.9457ZM13.2374 20.3031C13.4586 20.359 13.5594 20.508 13.4624 20.6357C12.9977 21.2478 12.8119 21.9138 12.9054 22.5694C12.9252 22.7084 12.7461 22.8303 12.5054 22.8418C12.2646 22.8532 12.0534 22.7498 12.0335 22.6108C11.9283 21.8731 12.1373 21.123 12.6612 20.433C12.7582 20.3052 13.0161 20.2471 13.2374 20.3031ZM20.8386 26.4487C20.8584 26.5877 20.6794 26.7095 20.4386 26.721C19.1609 26.7818 17.8616 26.661 16.6664 26.3587C16.4452 26.3026 16.3444 26.1536 16.4414 26.0259C16.5384 25.8982 16.7964 25.84 17.0176 25.8961C18.0777 26.1644 19.2314 26.2715 20.3668 26.2177C20.6075 26.2061 20.8188 26.3095 20.8386 26.4487ZM14.0904 24.9283C14.268 24.8337 14.5447 24.8402 14.7085 24.9428C14.7729 24.9831 14.839 25.0229 14.9069 25.0621C14.9747 25.1012 15.0436 25.1394 15.1135 25.1766C15.2911 25.2711 15.3024 25.4309 15.1386 25.5335C14.9749 25.636 14.6982 25.6426 14.5206 25.548C14.442 25.5062 14.3645 25.4632 14.2883 25.4192C14.212 25.3752 14.1377 25.3305 14.0653 25.2851C13.9015 25.1826 13.9128 25.0228 14.0904 24.9283Z" fill="#12D9E5"/>
<path fill-rule="evenodd" clip-rule="evenodd" d="M28.0578 17.0576C28.1809 17.1231 28.3022 17.1904 28.4217 17.2593C28.5412 17.3283 28.6576 17.3984 28.7712 17.4695C28.9348 17.572 28.9235 17.7318 28.7461 17.8263C28.5684 17.9208 28.2917 17.9143 28.1278 17.8118C28.0225 17.7457 27.9143 17.6806 27.803 17.6165C27.692 17.5523 27.5791 17.4899 27.4648 17.429C27.2871 17.3344 27.2758 17.1747 27.4396 17.0721C27.6035 16.9695 27.8802 16.9631 28.0578 17.0576ZM24.9219 16.1206C24.8249 16.2483 24.5669 16.3065 24.3456 16.2505C22.6089 15.811 20.7194 15.6353 18.8601 15.7237C18.6193 15.7352 18.4081 15.6318 18.3883 15.4928C18.3684 15.3538 18.5475 15.2318 18.7883 15.2203C20.79 15.1252 22.825 15.3142 24.6968 15.7879C24.9181 15.8439 25.0189 15.9929 24.9219 16.1206ZM31.4814 21.4271C31.7222 21.4157 31.9335 21.5191 31.9532 21.6581C32.1181 22.8137 31.7907 23.9887 30.9702 25.0694C30.8732 25.1971 30.6153 25.2553 30.394 25.1993C30.1727 25.1433 30.072 24.9943 30.1691 24.8666C30.9302 23.8639 31.2345 22.773 31.0814 21.6995C31.0617 21.5605 31.2407 21.4385 31.4814 21.4271ZM12.1515 17.0721C12.3152 17.1747 12.304 17.3344 12.1263 17.429C12.0119 17.4899 11.8992 17.5523 11.7881 17.6165C11.677 17.6806 11.5687 17.7457 11.4633 17.8118C11.2995 17.9143 11.0228 17.9208 10.8452 17.8263C10.6676 17.7318 10.6563 17.572 10.82 17.4695C10.9335 17.3984 11.05 17.3283 11.1695 17.2593C11.289 17.1904 11.4103 17.1231 11.5334 17.0576C11.7111 16.9631 11.9878 16.9695 12.1515 17.0721ZM28.7461 26.6528C28.9235 26.7474 28.9348 26.9072 28.7712 27.0098C28.6576 27.0808 28.5412 27.151 28.4217 27.22C28.3022 27.289 28.1809 27.3562 28.0578 27.4215C27.8802 27.5162 27.6035 27.5098 27.4396 27.4072C27.2758 27.3046 27.2871 27.1449 27.4648 27.0503C27.5791 26.9895 27.692 26.9269 27.803 26.8628C27.9143 26.7987 28.0225 26.7336 28.1278 26.6674C28.2917 26.5649 28.5684 26.5585 28.7461 26.6528ZM9.19711 19.28C9.41836 19.3359 9.51911 19.4849 9.42213 19.6126C8.66088 20.6153 8.35654 21.7062 8.50972 22.7797C8.52954 22.9187 8.35044 23.0407 8.1097 23.0521C7.86893 23.0636 7.65767 22.9602 7.63785 22.8212C7.47295 21.6655 7.80044 20.4906 8.6209 19.4099C8.71788 19.2821 8.97585 19.224 9.19711 19.28ZM21.2029 28.9864C21.2227 29.1254 21.0436 29.2474 20.8029 29.259C18.8012 29.3541 16.7661 29.1651 14.8943 28.6913C14.6731 28.6354 14.5723 28.4864 14.6693 28.3587C14.7663 28.231 15.0242 28.1728 15.2455 28.2287C16.9822 28.6682 18.8717 28.8439 20.7311 28.7554C20.9718 28.7441 21.1831 28.8474 21.2029 28.9864ZM10.8452 26.6528C11.0228 26.5585 11.2995 26.5649 11.4633 26.6674C11.5687 26.7336 11.677 26.7987 11.7881 26.8628C11.8991 26.9269 12.0119 26.9895 12.1263 27.0503C12.304 27.1449 12.3152 27.3046 12.1515 27.4072C11.9878 27.5098 11.7111 27.5162 11.5334 27.4215C11.4103 27.3562 11.289 27.289 11.1695 27.22C11.05 27.151 10.9335 27.0808 10.82 27.0098C10.6563 26.9072 10.6676 26.7474 10.8452 26.6528Z" fill="#12D9E5"/>
<path fill-rule="evenodd" clip-rule="evenodd" d="M26.2437 18.5168C22.6825 16.4607 16.9087 16.4607 13.3475 18.5168C9.78628 20.5728 9.78628 23.9064 13.3475 25.9623C16.9087 28.0185 22.6825 28.0185 26.2437 25.9623C29.8048 23.9064 29.8048 20.5728 26.2437 18.5168ZM12.7289 18.1596C16.6317 15.9063 22.9594 15.9063 26.8622 18.1596C30.765 20.413 30.765 24.0663 26.8622 26.3195C22.9594 28.5728 16.6317 28.5728 12.7289 26.3195C8.82605 24.0663 8.82605 20.413 12.7289 18.1596Z" fill="#12D9E5"/>
<path d="M15 7.14284C15 6.74835 15.3198 6.42856 15.7143 6.42856C16.1088 6.42856 16.4286 6.74835 16.4286 7.14284V23.5714C16.4286 23.9659 16.1088 24.2857 15.7143 24.2857C15.3198 24.2857 15 23.9659 15 23.5714V7.14284Z" fill="url(#paint3_linear_434_2423)" fill-opacity="0.5"/>
<path d="M16.4286 7.14284C16.4286 7.53733 16.1088 7.85712 15.7143 7.85712C15.3198 7.85712 15 7.53733 15 7.14284C15 6.74835 15.3198 6.42856 15.7143 6.42856C16.1088 6.42856 16.4286 6.74835 16.4286 7.14284Z" fill="#FFC700"/>
<path d="M16.4286 11.4286C16.4286 11.8231 16.1088 12.1429 15.7143 12.1429C15.3198 12.1429 15 11.8231 15 11.4286C15 11.0341 15.3198 10.7143 15.7143 10.7143C16.1088 10.7143 16.4286 11.0341 16.4286 11.4286Z" fill="#FFC700"/>
<path d="M16.4286 15.7143C16.4286 16.1088 16.1088 16.4286 15.7143 16.4286C15.3198 16.4286 15 16.1088 15 15.7143C15 15.3198 15.3198 15 15.7143 15C16.1088 15 16.4286 15.3198 16.4286 15.7143Z" fill="#FFC700"/>
<path d="M23.5718 12.1428C23.5718 11.7484 23.8916 11.4286 24.2861 11.4286C24.6805 11.4286 25.0003 11.7484 25.0003 12.1428V26.4285C25.0003 26.8231 24.6805 27.1428 24.2861 27.1428C23.8916 27.1428 23.5718 26.8231 23.5718 26.4285V12.1428Z" fill="url(#paint4_linear_434_2423)" fill-opacity="0.5"/>
<path d="M25.0003 12.1428C25.0003 12.5373 24.6805 12.8571 24.2861 12.8571C23.8916 12.8571 23.5718 12.5373 23.5718 12.1428C23.5718 11.7484 23.8916 11.4286 24.2861 11.4286C24.6805 11.4286 25.0003 11.7484 25.0003 12.1428Z" fill="#FFC700"/>
<path d="M25.0003 16.4286C25.0003 16.8231 24.6805 17.1429 24.2861 17.1429C23.8916 17.1429 23.5718 16.8231 23.5718 16.4286C23.5718 16.0341 23.8916 15.7143 24.2861 15.7143C24.6805 15.7143 25.0003 16.0341 25.0003 16.4286Z" fill="#FFC700"/>
<path d="M19.2859 1.42858C19.2859 1.03409 19.6057 0.714294 20.0002 0.714294C20.3947 0.714294 20.7145 1.03409 20.7145 1.42858V23.5714C20.7145 23.9659 20.3947 24.2857 20.0002 24.2857C19.6057 24.2857 19.2859 23.9659 19.2859 23.5714V1.42858Z" fill="url(#paint5_linear_434_2423)" fill-opacity="0.5"/>
<path d="M20.7145 1.42858C20.7145 1.82307 20.3947 2.14287 20.0002 2.14287C19.6057 2.14287 19.2859 1.82307 19.2859 1.42858C19.2859 1.03409 19.6057 0.714294 20.0002 0.714294C20.3947 0.714294 20.7145 1.03409 20.7145 1.42858Z" fill="#FFC700"/>
<path d="M20.7145 5.71428C20.7145 6.10877 20.3947 6.42856 20.0002 6.42856C19.6057 6.42856 19.2859 6.10877 19.2859 5.71428C19.2859 5.31979 19.6057 5 20.0002 5C20.3947 5 20.7145 5.31979 20.7145 5.71428Z" fill="#FFC700"/>
<path d="M20.7145 10C20.7145 10.3945 20.3947 10.7143 20.0002 10.7143C19.6057 10.7143 19.2859 10.3945 19.2859 10C19.2859 9.60553 19.6057 9.28574 20.0002 9.28574C20.3947 9.28574 20.7145 9.60553 20.7145 10Z" fill="#FFC700"/>
<path d="M20.7145 14.2857C20.7145 14.6802 20.3947 15 20.0002 15C19.6057 15 19.2859 14.6802 19.2859 14.2857C19.2859 13.8912 19.6057 13.5714 20.0002 13.5714C20.3947 13.5714 20.7145 13.8912 20.7145 14.2857Z" fill="#FFC700"/>
</g>
<defs>
<filter id="filter0_f_434_2423" x="-1.03418" y="14.9133" width="42.4668" height="28.7447" filterUnits="userSpaceOnUse" color-interpolation-filters="sRGB">
<feFlood flood-opacity="0" result="BackgroundImageFix"/>
<feBlend mode="normal" in="SourceGraphic" in2="BackgroundImageFix" result="shape"/>
<feGaussianBlur stdDeviation="2.5" result="effect1_foregroundBlur_434_2423"/>
</filter>
<linearGradient id="paint0_linear_434_2423" x1="39.2841" y1="27.5" x2="10.3556" y2="44.2018" gradientUnits="userSpaceOnUse">
<stop stop-color="#626AE9"/>
<stop offset="1" stop-color="#A7B5F6"/>
</linearGradient>
<linearGradient id="paint1_linear_434_2423" x1="36.5577" y1="26.3264" x2="11.7618" y2="40.6426" gradientUnits="userSpaceOnUse">
<stop stop-color="#4B4DDC"/>
<stop offset="1" stop-color="#626AE9"/>
</linearGradient>
<linearGradient id="paint2_linear_434_2423" x1="29.7821" y1="26.6374" x2="15.2566" y2="35.0238" gradientUnits="userSpaceOnUse">
<stop stop-color="#3F3FC2"/>
<stop offset="1" stop-color="#34359D"/>
</linearGradient>
<linearGradient id="paint3_linear_434_2423" x1="15.7143" y1="6.42856" x2="15.7143" y2="24.2857" gradientUnits="userSpaceOnUse">
<stop stop-color="#FFB800"/>
<stop offset="1" stop-color="#FFB800" stop-opacity="0"/>
</linearGradient>
<linearGradient id="paint4_linear_434_2423" x1="24.2861" y1="11.4286" x2="24.2861" y2="27.1428" gradientUnits="userSpaceOnUse">
<stop stop-color="#FFB800"/>
<stop offset="1" stop-color="#FFB800" stop-opacity="0"/>
</linearGradient>
<linearGradient id="paint5_linear_434_2423" x1="20.0002" y1="0.714294" x2="20.0002" y2="24.2857" gradientUnits="userSpaceOnUse">
<stop stop-color="#FFB800"/>
<stop offset="1" stop-color="#FFB800" stop-opacity="0"/>
</linearGradient>
<clipPath id="clip0_434_2423">
<rect width="40" height="40" fill="white"/>
</clipPath>
</defs>
</svg>
