<?xml version="1.0" standalone="no"?>
<!DOCTYPE svg PUBLIC "-//W3C//DTD SVG 20010904//EN"
 "http://www.w3.org/TR/2001/REC-SVG-20010904/DTD/svg10.dtd">
<svg version="1.0" xmlns="http://www.w3.org/2000/svg"
 width="96.000000pt" height="96.000000pt" viewBox="0 0 96.000000 96.000000"
 preserveAspectRatio="xMidYMid meet">
<metadata>
Created by potrace 1.14, written by Peter Selinger 2001-2017
</metadata>
<g transform="translate(0.000000,96.000000) scale(0.100000,-0.100000)"
fill="#000000" stroke="none">
<path d="M32 940 c-19 -18 -22 -31 -22 -109 0 -118 10 -127 137 -133 85 -4 96
-7 130 -34 56 -45 74 -89 77 -190 3 -111 15 -124 120 -125 152 -1 217 -62 222
-207 1 -43 3 -83 3 -89 1 -7 10 -22 21 -33 17 -17 33 -20 103 -20 74 0 86 3
105 23 19 20 22 35 22 110 0 114 -12 127 -117 127 -156 0 -225 67 -225 219 0
73 -9 108 -32 123 -6 4 -45 8 -87 8 -60 0 -85 5 -125 25 -70 35 -97 84 -100
185 -1 41 -2 81 -3 88 -1 6 -10 21 -21 32 -17 17 -33 20 -103 20 -70 0 -87 -3
-105 -20z"/>
<path d="M359 921 c-21 -17 -23 -27 -23 -105 0 -76 2 -89 22 -108 19 -19 34
-23 106 -24 148 -2 207 -59 211 -203 3 -129 13 -139 137 -136 109 2 118 12
118 127 0 75 -3 91 -20 108 -11 11 -30 20 -42 20 -125 2 -159 8 -197 33 -64
43 -78 82 -81 240 0 51 -30 67 -124 67 -67 0 -88 -4 -107 -19z"/>
<path d="M705 925 c-16 -13 -20 -29 -21 -101 -2 -79 -1 -88 21 -110 21 -21 33
-24 103 -24 110 0 122 12 122 125 0 115 -10 125 -122 125 -58 -1 -89 -5 -103
-15z"/>
<path d="M52 609 c-32 -12 -42 -41 -42 -128 0 -68 3 -84 20 -101 11 -11 26
-20 32 -21 7 0 42 -1 78 -3 108 -4 153 -25 186 -88 18 -35 22 -59 23 -140 1
-96 15 -108 125 -108 117 0 128 10 131 116 2 84 -7 119 -34 130 -9 4 -48 8
-87 9 -88 3 -133 17 -169 55 -32 33 -53 104 -49 164 4 56 -12 103 -39 112 -31
10 -150 12 -175 3z"/>
<path d="M36 249 c-24 -19 -26 -26 -26 -104 0 -116 10 -125 135 -125 83 0 94
2 113 23 19 20 22 35 22 101 0 68 -3 80 -25 101 -22 23 -32 25 -108 25 -70 0
-89 -3 -111 -21z"/>
</g>
</svg>
